<?xml version="1.0" encoding="utf-8"?>
<!-- Generator: Adobe Illustrator 27.0.1, SVG Export Plug-In . SVG Version: 6.00 Build 0)  -->
<svg version="1.1" id="Laag_1" xmlns="http://www.w3.org/2000/svg" xmlns:xlink="http://www.w3.org/1999/xlink" x="0px" y="0px"
	 viewBox="0 0 453 673.5" style="enable-background:new 0 0 453 673.5;" xml:space="preserve">
<style type="text/css">
	.st0{fill:#E72870;}
</style>
<g>
	<path class="st0" d="M158.3,302.4c-5.7-9.9-8.5-19.9-8-30.5c0.5-9.6,1.5-19.3,3-28.8c1.3-8,3.5-15.9,5.4-23.8
		c0.5-2,0.3-3.5-1.3-5.3c-2.2-2.6-4.1-5.8-5.3-9c-3-7.8-0.6-12.6,8.3-16.6c-1-0.4-2.2-0.7-3-1.4c-6.9-6.5-11.1-14.4-13-23.6
		c-2-9.4,0.6-15.1,9.2-20.1c-1.3-2-2.6-4-4-5.9c-4.4-6.2-4.8-15.8-0.8-22.2c2.5-4,5.8-6.8,10.8-7.2c1.2-0.1,2.5-0.6,3.5-0.9
		c-6.1-13.1-6.1-26.1-0.2-38.7c9.3-20,29.3-25.1,46.8-18.4c6.6,2.5,11.1,8,14.5,14c3.5,6.2,6.1,13,9.1,19.3c0.8-1.2,2-3.1,3.3-4.9
		c2.9-3.8,6.7-5.3,11.4-3.9c9.5,2.8,15.6,9.3,17.6,18.7c1.3,5.8,1,12,1,18c0,3.8-0.8,7.6-1.3,12.1c3-1.3,5.2-2.7,7.7-3.4
		c3.8-1.1,7.6-2.2,11.5-2.4c4.8-0.2,7,3,5.7,7.7c-1.9,7-5.6,13.1-10.9,18.1c-0.9,0.9-1.9,1.8-2.6,3.2c0.9-0.1,1.7-0.4,2.6-0.4
		c2.9-0.3,5.5,0.2,7.3,2.9c1.8,2.7,2.2,5.6,0.3,8.3c-1.8,2.5-4,4.7-6,7c-1.5,1.8-3,3.6-4.6,5.4c0.6,0.4,0.8,0.6,1,0.6
		c6.2-0.1,8.5,1.8,7.5,8c-0.8,4.9-2.9,9.5-4.6,14.7c7,7.9,6.5,21-1.9,28.6c-1.8,1.6-4.2,2.9-6.5,3.5c-2.3,0.6-2.5,1.6-2.6,3.6
		c-0.4,14.3-0.5,28.6-1.6,42.8c-0.6,7.3-2.4,14.6-4.7,21.5c-1.8,5.2-5.3,9.8-7.7,14.2c0.3-0.2,1.2-1.1,2.2-1.7
		c1-0.6,2.4-1.5,3.3-1.2c3.3,1.1,5.2-0.9,7.1-2.8c8.5-8.5,16.7-17.2,25.4-25.5c9.3-8.9,18.9-17.4,28.2-26.4c2.2-2.2,4.5-5.2,5-8.2
		c2.6-13.8,4.7-27.7,6.8-41.7c1.3-9,2.4-18.1,3.3-27.2c0.1-1.3-0.6-3.4-1.7-4.1c-6.4-4.5-8.5-10.8-8-18.1c0.3-5,1.4-10,2.1-15
		c0.2-1.3,0.6-2.8,0.1-3.9c-1.9-4.6-1.5-9.2-1.3-14c0.1-2.1-0.8-4.3-1.2-6.4c-0.4-2.4-1.3-5.4,1.4-6.5c1.9-0.8,4.5,0.1,6.8,0.3
		c0.7,0.1,1.3,0.7,2.3,1.2c0.8-3.4,1.5-6.6,2.3-9.8c0.8-3.2,1.5-6.5,2.7-9.5c0.8-2,2.3-4,4-5.5c2.3-2,5.3-1.2,6.5,1.7
		c0.7,1.7,1.2,3.7,1,5.4c-0.9,7.3-2.1,14.6-3.2,21.8c-0.2,1.2-0.5,2.3-0.9,3.9c3.3-0.7,5.6,0.1,6.8,3c0.2,0.4,0.8,0.6,1.3,0.8
		c0.5,0.2,1.1,0.1,1.6,0.3c4,1.3,10.6,9.8,10.2,14c-0.5,4.6-1.9,9.2-2.9,13.8c-0.4,2-1.2,4-1.3,6c-0.2,5.9-1.6,11-7.1,14.4
		c-0.9,0.5-1.3,2.4-1.4,3.7c-0.6,14.7-0.8,29.5-1.6,44.2c-0.7,11.8-2,23.7-3.2,35.5c-0.4,4.4-2.7,8-5.7,11.3
		c-20.7,22.8-41.2,45.8-61.7,68.8c-0.7,0.8-1.5,2-1.3,2.8c0.9,3.6-0.9,6-3.1,8.2c-1.5,1.5-1.5,2.7-0.5,4.6
		c8.6,16.3,15.6,33.3,19.1,51.5c3.8,19.7,3.8,39.4-0.3,59c-0.3,1.3-1.2,2.6-2.2,3.5c-7.2,6.4-15.9,10.1-24.9,13.3
		c-1.1,0.4-2.2,0.8-3.7,1.4c1.8,7.1,3.6,14,5.3,20.9c4.1,17,8.5,33.9,12,51.1c1,4.8,0.2,10.3-0.9,15.3c-4.5,20.4-9.5,40.7-14.3,61
		c-0.2,1.1-0.5,2.1-0.8,3.4c5.6,1.4,11,2.6,16.4,4.1c12.9,3.7,25.2,8.6,35.6,17.4c3.1,2.7,5.9,5.9,8.3,9.3c3.1,4.6,1.6,7.6-3.9,7.4
		c-6-0.3-12.1-1-17.8-2.6c-11.4-3.2-22.6-7.3-33.9-10.9c-5.9-1.8-11.9-3.3-17.8-4.9c-1.5-0.4-2.9-1-4.2-1.8c-3.3-2-4.6-5-2.8-8.4
		c1.4-2.9,3.8-5.3,5.5-8.1c0.8-1.3,1.7-2.8,1.8-4.3c1.3-24.8,4-49.3,9.5-73.5c0.4-2,0.1-4.5-0.7-6.3c-7.2-16.3-14.5-32.5-21.8-48.8
		c-1.5-3.3-3.1-6.6-4.4-10c-0.8-2.1-1.9-2.4-4-2c-12.2,2.6-24.4,5-36.9,4.9c-2.5,0-5.1,0.1-7.6-0.2c-2.4-0.2-3.9,0.5-5,2.6
		c-10.3,18.9-20.8,37.8-31.1,56.7c-0.6,1.1-0.8,2.8-0.5,4.1c4.3,20.8,4,41.8,2.5,62.8c-0.2,2.3,0.2,3.6,2.6,4.5
		c2.4,0.9,4.8,2.3,6.9,3.9c4.1,3.1,4,7.1-0.5,9.9c-2.5,1.5-5.3,2.9-8.1,3.5c-11.1,2.4-20.9,8-30.8,13.3c-5.8,3.1-11.9,5.5-18,8
		c-1.1,0.5-2.4,0.5-3.6,0.5c-5.8-0.2-7.7-3.4-4.9-8.6c2.8-5.4,7.2-9.4,11.8-13.1c8.5-6.8,17.5-12.6,28.3-16
		c-0.7-6.6-1.4-13.1-2-19.6c-1.5-16.5-3.2-33.1-4.4-49.6c-0.3-3.9,0.4-8.2,1.7-11.9c6-17.4,12.4-34.6,18.6-51.8
		c0.4-1.1,0.7-2.2,1.1-3.5c-4.3-1.4-8.4-2.7-12.4-4.1c-10.6-3.7-20.3-9-28.6-16.6c-1.7-1.6-2.3-3.2-2.4-5.4
		c-2.3-36.2,7-70,21.2-102.7c1.9-4.3,3.9-8.6,6-13.1c-4.5-2.3-6.4-6.8-9-10.7c-5.3-7.8-11.5-15-17-22.7
		c-14-19.2-27.8-38.5-41.8-57.7c-2.2-3-3.2-6.1-2.6-9.5c1.5-9.2,2.8-18.5,5.1-27.5c4.7-18.9,9.9-37.6,15-56.4
		c0.6-2.2,0.5-3.8-1.2-5.6c-3.4-3.6-4-8.4-4.4-13.2c-0.3-2.8-1.2-5.5-1.9-8.2c-1.1-4.6-2.5-9.1-3.1-13.7c-0.4-3.3,0.3-6.6,4-8.3
		c0.6-0.3,0.8-1.3,1.3-1.8c1.8-1.5,3.7-2.9,5.5-4.4c1-0.7,1.9-1.5,3-2.1c1.7-1,3.4-1.9,5.6-3.2c-0.5-2.3-1.5-5.4-1.9-8.6
		c-0.7-5.3-1.3-10.7-1.6-16.1c-0.3-4.4,1.4-7.2,4.1-7.8c2.6-0.5,6,1.8,7.1,5.7c1.9,7,3.4,14.1,5,21.1c0.1,0.6,0.2,1.3,0.4,2.2
		c1.5-1.7,2.6-3.4,4.2-4.4c1.2-0.8,3.4-1.3,4.4-0.7c1.2,0.7,2.3,2.8,2.2,4.2c-0.8,7.7-2.1,15.3-2.9,23c-0.3,2.4,0.6,5,0.8,7.5
		c0.4,6,1.2,12,0.9,18c-0.3,4.6-3.1,8.3-7,11.1c-1.5,1.1-2.8,2.9-3.2,4.7c-5.8,26.1-11.4,52.2-17.2,78.2c-0.9,4,0.2,6.8,3,9.6
		c18.1,18,36,36.2,54.1,54.2C151.2,299.6,154.7,300.5,158.3,302.4z M243.7,488c0,0-0.1-0.1-0.1-0.1c1,2.6,2,5.3,3.1,8.1
		c0.6-1.4,0.9-2.4,1.3-3.3c0.8,0.8,1.7,1.5,2.3,2.4c0.5,0.7,0.7,1.6,1,2.4c0.9,2,1.2,3.7-2.1,3.8c2.3,4.9,4.4,9.6,6.4,13.9
		c1.1-0.6,1.8-1,2.6-1.4c0.9,1.8,1.9,3.6,2.8,5.4c-0.9,0.4-1.8,0.9-2.9,1.4c0.9,2,1.9,4.2,2.9,6.4c0.2-0.2,0.3-0.5,0.5-0.7
		c1,0.3,2.9,0.7,2.9,1c0,1.2-0.6,2.5-1,3.7c-0.2,0-0.5,0-0.7-0.1c0.7,1.6,1.4,3.2,2.1,4.6c1-0.5,1.8-0.9,2.6-1.4
		c0.6,1.2,1.7,2.4,1.8,3.7c0.1,1-1.1,2-1.9,3.3c0.7,1,0,3.9,3.3,3.5c0.3,0,1.1,1.4,1,2.1c0,0.6-0.8,1.3-1.4,1.8
		c-0.6,0.6-1.7,0.9-1.9,1.6c-1.1,4.2-2,8.5-3,12.8c0.3-0.1,0.6-0.2,0.9-0.3c0.7,0.9,2,1.8,1.9,2.6c-0.3,2.4-0.1,5.5-4.1,5.2
		c0,1.8-1.6,3.8,1.3,4.9c0.3,0.1-0.1,3.7-0.5,3.8c-3.1,0.6-2.2,3-2.5,4.3c1,1.2,2.4,2.3,2.3,3c-0.3,1.5-1.1,3.2-2.3,4.2
		c-1.5,1.3-2,4.7-0.5,6c1.9,1.6,1.7,4.1-0.6,5.5c-1.7,1-2.1,4.5-0.6,5.6c2.3,1.8,1.9,4.3-0.4,6.3c-0.9,0.8-0.7,3-0.5,4.5
		c0.1,1,1.7,1.9,1.6,2.9c0,1-1.1,2-1.8,3.1c1.1,0.2,2.4,0.4,3.7,0.7c1.7,0.4,2.6-0.2,3-2c5-21.3,10.2-42.6,14.9-63.9
		c1-4.5,1.3-9.5,0.4-14c-4.7-21-10-41.9-15.1-62.8c-0.6-2.4-1.3-4.8-1.9-7.3c-8.3,2.2-16.3,4.2-24.6,6.4
		C241.5,483.8,242.6,485.9,243.7,488z M160.4,309.9c-1.2,1.7-2.3,3-3.3,4.5c-8.6,12.8-16.1,26.3-22.2,40.4
		c-13.8,32.1-23,65.1-20.8,100.5c0.1,1.7,1,4,2.3,5c4.8,3.7,9.6,7.6,14.9,10.2c28.6,13.9,58.8,17,89.8,11.5
		c15.8-2.8,31.5-7.2,47-11.4c9.1-2.4,17.6-6.5,25-12.4c1.2-1,2.3-2.5,2.6-3.9c4-19.4,3.9-38.9-0.2-58.3c-5.4-26-17.4-49.2-31.2-71.6
		c-2.8-4.5-6.5-8.4-9.7-12.6c-14.3,12.2-30.2,18-48,18.7C188.1,331.1,172.8,324,160.4,309.9z M266.4,239.7c0-4.9,0.2-9.9-0.1-14.8
		c-0.4-7.1-0.4-14.5-2.1-21.3c-3-11.7-7.2-23.1-10.9-34.6c-3.4-10.4-7.6-20.4-14.8-28.9c-5.2-6.1-14.1-8-20.8-3.6
		c-4.8,3.2-9.6,3.7-14.6,1.5c-4.1-1.8-7.9-0.9-11.8,0.7c-4.8,1.9-8.3,5.2-10.9,9.7c-7.4,12.7-11.5,26.6-14.9,40.7
		c-0.1,0.6-0.2,1.7,0.1,1.8c2.6,1.5,1.4,3.8,1,5.6c-2.8,12.8-5.8,25.5-8.6,38.3c-3.3,15-6.6,30-4.3,45.4
		c3.4,22.5,12.9,31.9,31.3,35.9c18.1,3.9,35.8,2.5,53.3-3.4c13.6-4.6,21.6-13.8,24.5-28C265.8,269.7,266.7,254.7,266.4,239.7z
		 M85,135.6c0.4,5.5,0.8,10.7,5.3,14.6c0.8,0.7,1.1,2.6,0.8,3.7c-2.5,10.4-5.4,20.6-7.9,31c-4.2,17.3-8.3,34.6-12.3,51.9
		c-0.9,4-0.4,7.7,2.1,11.5c17.7,27.2,38,52.3,57.6,78.1c0.3,0.3,0.6,0.6,0.6,0.5c5.4-8.9,10.8-17.8,16.3-26.7
		c-5-5.1-10.4-10.5-15.7-15.9c-13.5-13.6-27-27.2-40.5-40.7c-2.4-2.4-3.4-4.8-2.6-8.2c6-27,11.8-54.1,17.8-81.1c0.5-2,2-4.3,3.7-5.5
		c5.6-3.9,7.3-9.5,7-15.8c-0.2-3.6-1.1-7.2-1.5-10.8c-0.3-3.3-0.5-6.7-0.4-10.1c0.1-2.8,0.7-5.6,1-8.4c0.4-3.3,0.6-6.5,0.9-9.8
		c0.1-1.5,0.2-3,0.4-5.2c-4.2,2.1-5.5,5.1-6.3,8.3c-1.1,4.4-1.8,8.8-2.8,13.2c-0.9,4.1-0.6,8.1,1,12c0.4,0.9,0.3,2.1,0.4,3.1
		c-1,0-2.1,0-3.1,0c-2.8,3.8-8.3,4.7-11,8.9c-0.3,0.4-1.2,0.6-1.8,0.7C91.2,135.2,88.3,135.4,85,135.6z M336.3,143.7
		c0.4-1.9,0.7-3,0.9-4.1c0.6-2.7,1.8-5.4,1.6-8c-0.5-6.8-1.5-13.5-2.7-20.2c-0.3-1.6-1.9-3.1-3.2-4.2c-0.6-0.6-2.4-0.7-3-0.2
		c-0.6,0.4-0.6,1.9-0.6,3c0.3,4.6,0.7,9.1,1.1,13.7c0.2,1.6,0.6,3.2,0.8,4.9c0.3,2.6,0.8,5.2,0.5,7.7c-0.4,4.6-1.6,9.1-2,13.7
		c-0.5,6.7,1.1,12.7,7.3,16.5c2.3,1.4,3,3.3,2.6,6.1c-1.5,10.1-2.5,20.3-3.9,30.4c-1.8,12.5-3.8,25-5.8,37.5
		c-0.8,4.9-3.2,8.9-7.2,12.2c-7.1,6-14.1,12.3-20.7,18.8c-9.8,9.6-19.4,19.5-29.1,29.2c-2.2,2.2-4.6,4.2-6.7,6.2
		c5.3,7.2,10.5,14.1,16.1,21.8c0.6-0.9,1.1-1.9,1.9-2.7c19.8-22.1,39.6-44.3,59.6-66.2c3.3-3.6,5.4-7.5,5.8-12.2
		c1.1-11.2,2.2-22.3,2.8-33.5c0.8-15,1.1-30.1,1.5-45.2c0.1-2.4,0.7-4,3.1-5.2c3.9-2,5.6-6.3,4.8-11.1c-3.7,2.5-7.3,0.4-10.6-0.8
		c-1.9-0.7-2.9-4.4-4.8-4.8c-2.7-0.7-4.7-1.5-6.1-3.8c-0.2-0.3-0.3-0.6-0.4-0.7C338.8,142.8,338,143,336.3,143.7z M151.8,616.7
		c0.7-0.4,0.9-0.5,1-0.7c0.1-0.5,0.3-1.1,0.3-1.6c1.4-21.2,1.9-42.4-2.4-63.4c-0.4-1.9,0-4.3,0.9-5.9c9.9-18.4,20-36.7,30-55
		c0.5-0.9,1-1.8,1.5-2.8c-8.7-1.3-17.1-2.5-25.4-3.8c-0.1,0.2-0.3,0.3-0.4,0.5c-6.9,19-13.8,38.1-20.5,57.1
		c-0.8,2.2-1.1,4.8-0.9,7.1c1.8,20.5,3.7,41,5.6,61.4c0.3,2.8,0.7,5.6,1,8.5c2.5-0.4,4.6-0.8,6.5-1.1c0-1.9-0.2-3.6,0.1-5.3
		c0.2-1.1,0.9-2.1,1.4-3.1c0.4,1.1,1.1,2.2,1.3,3.3C151.9,613.3,151.8,614.8,151.8,616.7z M251.2,310.3
		c-27.6,13.1-55.5,15.1-84.3,2.3c12.2,11.6,26.5,16.2,42.6,14.9C225.2,326.2,239.4,321,251.2,310.3z M158.4,307
		c-1.2-1-2.3-2-3.5-2.9c-3.6-2.7-4-2.9-6.4,0.7c-4.8,7.4-9.3,15.1-13.7,22.8c-1.8,3.1-1.3,5.9,1.8,8.3c2.1,1.6,3.1,2.1,4.4-0.6
		c1.9-3.7,4-7.3,6.2-10.9C150.9,318.7,154.6,313,158.4,307z M269.2,222.3c5.6,0.4,10.5-4.3,12.5-11.9c1.9-7.3,0.3-13.1-3.5-14.8
		c-3.4,3-6.7,5.8-9.8,8.7c-0.5,0.4-0.6,1.4-0.6,2.1C268.2,211.7,268.7,217,269.2,222.3z M105.9,108.4c1.8-5.1,2.2-10.1,1-15.3
		c-1.8-7.9-3.4-15.8-5.4-23.7c-0.4-1.4-2.5-2.4-3.8-3.5c-0.6,1.5-1.6,3.1-1.6,4.6C96,83.9,98.8,96.6,105.9,108.4z M340.4,125
		c0.3,0,0.6,0,0.9-0.1c6.2-11.1,8.7-23.1,9.3-35.6c0.1-2-1-4-1.6-6c-1.5,1.7-3.8,3.1-4.4,5.1c-2.1,7.1-4.2,14.4-5.2,21.7
		C338.8,114.9,340,120,340.4,125z M257.5,309.6c6.8,10.2,13.2,20,19.7,29.7c3.6-2.7,4.5-4.5,2.1-8.2c-5-7.7-10.5-15.1-16.1-22.4
		C261.2,306,259.5,306.6,257.5,309.6z M354.5,121.4c-1-1.9-1.5-4.2-2.4-4.3c-1.4-0.2-3.8,0.6-4.5,1.7c-3.5,5.9-5.4,12.5-5.6,19.3
		c0,1.7,1.5,3.4,2.3,5.2c1.4-1.2,3.5-2.1,4.1-3.6C350.7,133.7,352.5,127.5,354.5,121.4z M105.8,119.8c-2.2-6.2-4.2-12.3-6.6-18.2
		c-0.5-1.1-2.9-1.7-4.4-1.9c-0.4,0-1.8,2.5-1.6,3.6c1.4,6.3,2.9,12.5,4.9,18.6c0.5,1.6,2.8,2.7,4.2,4.1
		C103.3,124.1,104.4,122.2,105.8,119.8z M89.8,103.7c-3.9,0.3-6.3,2.9-5.3,6.9c1.8,6.6,4.2,13.1,6.8,19.5c1.1,2.8,3.9,2.6,5.1-0.1
		c0.6-1.4,0.5-3.4,0-4.8c-1.2-3.6-3.1-7-4.2-10.6C91.1,111,90.6,107.3,89.8,103.7z M356.8,120.9c-1.6,7.9-2.6,15.7-7.1,22.6
		c-1.3,1.9-0.1,4.4,2.2,5.5c0.8,0.4,2.9-0.3,3.1-1c2.6-6.9,5.2-13.9,7.2-21C363,123.8,360.8,121.8,356.8,120.9z M164.4,193.1
		c-5.1-1-8.3,0-9.7,2.9c-2.1,4.4,1.1,13.6,5.9,16.2C161.9,205.8,163.1,199.6,164.4,193.1z M88.8,132.8c-2.7-7.6-5.2-14.7-7.6-21.7
		c-2.5,4.7,0.5,17.9,4.9,20.9C86.7,132.5,87.7,132.5,88.8,132.8z M365.6,128.8c-2.6,7.3-5.3,14.5-7.9,21.8
		C363.7,149.7,368.9,135.4,365.6,128.8z"/>
	<path class="st0" d="M98.1,47c1.2-8.9,2.5-17.8,3.7-26.7c0.2-1.3,0.1-2.7,0.4-3.9c0.2-0.8,1-1.4,1.5-2.2c0.4,0.8,1.2,1.6,1.2,2.3
		c-0.4,4.6-1,9.2-1.6,13.7c-0.7,6.1-1.4,12.2-2.3,18.3c-0.2,1.1-1,2.1-1.5,3.1c-0.4-1.1-0.9-2.2-1.3-3.3c-0.1-0.4,0-0.9,0-1.3
		C98.2,47,98.1,47,98.1,47z"/>
	<path class="st0" d="M364.2,75.1c-0.2-1.3-0.6-2.1-0.3-2.7c0.3-0.8,1.1-1.3,1.8-1.9c7.5-6.6,15-13.2,22.6-19.7c0.7-0.6,2-0.5,3-0.7
		c-0.4,1-0.6,2.2-1.4,2.9c-7.7,6.9-15.4,13.7-23.2,20.5C366.1,73.8,365.4,74.2,364.2,75.1z"/>
	<path class="st0" d="M69.6,65.5c-4.9,0.3-9.8,0.6-14.8,0.7c-0.9,0-1.9-0.8-2.9-1.3c0.9-0.5,1.7-1.4,2.6-1.4
		c10.3-0.2,20.6-0.2,30.9-0.2c0.8,0,1.6,1,2.4,1.5c-0.8,0.4-1.6,1.1-2.4,1.1C80.1,66,74.9,66,69.6,66C69.6,65.8,69.6,65.7,69.6,65.5
		z"/>
	<path class="st0" d="M339.6,75.6c-1.2-0.7-1.7-0.8-2.1-1.2c-7.2-6.9-16.4-10.1-25.2-14.1c-0.6-0.3-1.4-0.4-1.8-0.8
		c-0.5-0.5-0.6-1.4-0.9-2.1c0.7-0.1,1.5-0.6,2-0.3c9.5,4,19.3,7.5,27.1,14.7c0.7,0.6,1.1,1.6,1.4,2.4
		C340.2,74.6,339.8,75.2,339.6,75.6z"/>
	<path class="st0" d="M106.2,57.3c-0.2-1.3-0.6-2.3-0.3-2.8c0.9-1.4,2.2-2.5,3.2-3.8c5.4-6.9,10.7-13.9,16.1-20.8
		c0.6-0.7,1.6-1.1,2.4-1.7c0,1.1,0.4,2.5-0.1,3.2c-5.1,6.9-10.3,13.7-15.5,20.5c-1,1.3-2.2,2.5-3.4,3.6
		C108.1,55.9,107.4,56.3,106.2,57.3z"/>
	<path class="st0" d="M370.6,83.3c-0.4-0.4-1.3-0.9-1.2-1.1c0.2-0.6,0.6-1.4,1.2-1.7c2.7-1.2,5.6-2.1,8.2-3.4
		c5.9-3,11.7-6.3,17.7-9.4c1-0.5,2.3-0.4,3.5-0.5c-0.7,1-1.1,2.4-2,2.9c-8.4,4.3-16.8,8.5-25.2,12.6C372.1,82.9,371.5,83,370.6,83.3
		z"/>
	<path class="st0" d="M90.3,50c-1.1,0.3-1.8,0.7-2.4,0.5c-0.5-0.1-1-0.8-1.4-1.3c-5.9-6.9-11.9-13.8-17.7-20.8
		c-0.6-0.8-0.6-2-0.9-3.1c1.1,0.5,2.5,0.6,3.1,1.4c5.9,6.8,11.8,13.7,17.6,20.5C89,48,89.4,48.7,90.3,50z"/>
	<path class="st0" d="M398.5,111c-3.9-1.9-7.9-3.5-11.6-5.7c-4.5-2.7-8.8-5.8-13-8.9c-0.8-0.6-1-1.8-1.5-2.8
		c1.1,0.2,2.3,0.1,3.2,0.5c1.9,1,3.6,2.5,5.5,3.6c5.7,3.4,11.6,6.6,17.3,10c0.7,0.4,1.2,1.4,1.7,2.1
		C399.6,110.2,399.1,110.5,398.5,111z"/>
	<path class="st0" d="M370,43.1c-0.3,0.7-0.4,1.2-0.7,1.7c-4.1,7.2-8.1,14.3-12.3,21.4c-0.4,0.8-1.6,1.1-2.5,1.6
		c0-1-0.3-2.1,0.1-2.8c4-7.2,8.1-14.4,12.2-21.5c0.4-0.7,1.3-1.2,2.1-1.7C369,41.8,369.7,42.7,370,43.1z"/>
	<path class="st0" d="M80.2,76.1c-0.7,0.6-1.3,1.2-2,1.7c-6.1,4.5-12.1,8.9-18.3,13.3c-0.7,0.5-1.8,0.3-2.8,0.5
		c0.3-0.8,0.3-2,0.9-2.5c6.4-4.8,12.8-9.5,19.3-14.1c0.5-0.4,1.4-0.3,2.1-0.2C79.7,74.9,79.9,75.6,80.2,76.1z"/>
	<path class="st0" d="M341,44.2c0.2-0.4,0.7-1.2,1.2-2c0.6,0.8,1.5,1.5,1.6,2.4c0.9,6.9,1.7,13.7,2.5,20.6c0.1,0.9-0.7,1.8-1,2.7
		c-0.6-0.8-1.5-1.5-1.6-2.4C342.7,58.7,341.9,51.8,341,44.2z"/>
	<path class="st0" d="M139,52.4c0.6,0.5,1.2,0.9,1.7,1.3c-0.5,0.6-1,1.5-1.6,1.7c-4.3,1.4-8.6,2.6-12.9,3.9
		c-2.8,0.9-5.6,1.9-8.4,2.7c-0.6,0.2-1.3-0.4-2-0.6c0.3-0.6,0.4-1.6,0.9-1.8C124,57.2,131.4,54.8,139,52.4z"/>
	<path class="st0" d="M326.3,82.3c-1.4,1-1.9,1.6-2.6,1.8c-6.2,1.9-12.4,3.7-18.6,5.4c-0.7,0.2-1.6-0.5-2.5-0.7
		c0.5-0.6,0.9-1.6,1.5-1.8c6.2-1.9,12.4-3.8,18.6-5.5C323.5,81.2,324.5,81.8,326.3,82.3z"/>
	<path class="st0" d="M137.2,81.8c-4.3-1.4-8.3-2.7-12.3-4.2c-0.4-0.2-0.6-1-0.9-1.5c0.6-0.3,1.4-1,1.9-0.8
		c3.9,1.1,7.8,2.4,11.6,3.7c0.5,0.2,1,1.1,1.1,1.7C138.6,81,137.7,81.5,137.2,81.8z"/>
	<path class="st0" d="M162.8,336.4c-1.7,2.4-3.4,4.7-5.2,7c-0.5,0.7-1.4,1.1-2.2,1.6c-0.4-0.8-0.8-1.5-1.3-2.4
		c-0.6,1.2-1.1,2.5-1.9,3.6c-0.4,0.6-1.3,0.8-2,1.2c-0.2-0.8-0.8-1.8-0.5-2.3c3.1-5.7,6.4-11.3,9.7-16.8c0.3-0.5,1.2-0.6,1.9-0.9
		c0.2,0.7,0.4,1.5,0.4,2.2c0,0.5-0.4,1-0.8,1.6c1.1,0,2,0,2.9,0c-0.2,1-0.3,2-0.5,3c-0.1,0.6-0.3,1.3-0.5,1.9
		C162.9,336.2,162.8,336.4,162.8,336.4z"/>
	<path class="st0" d="M264.5,442c-0.2-1.2-0.7-2.2-0.4-2.5c4-5.1,8.1-10.1,12.2-15.1c0.3-0.3,1.1-0.2,1.7-0.3c0,0.8,0.3,1.8-0.1,2.3
		c-1.8,2.6-3.8,5.1-5.7,7.6c-1.7,2.1-3.5,4.2-5.4,6.2C266.4,440.8,265.7,441.2,264.5,442z"/>
	<path class="st0" d="M272.4,439.6c-0.2-0.9-0.8-1.9-0.4-2.3c1.9-2.5,4-5,6.1-7.3c0.3-0.3,1.2-0.4,1.8-0.2c0.3,0.1,0.6,1.1,0.4,1.3
		c-2.2,2.7-4.4,5.4-6.7,8.1C273.4,439.3,273.1,439.3,272.4,439.6z"/>
	<path class="st0" d="M282.2,437.4c-2.1,2-4.2,3.9-6.3,5.9c-0.4-0.7-1.2-1.8-1-2c1.5-1.9,3.2-3.6,4.9-5.2c0.3-0.3,1.4,0.3,2.1,0.4
		C282.1,436.7,282.1,437,282.2,437.4z"/>
	<path class="st0" d="M162.8,336.4c0,0,0.1-0.1,0.1-0.1c0.8-0.1,1.7-0.3,2.5-0.4c-0.1,0.8,0.1,1.8-0.3,2.4c-0.5,0.7-1.4,1.2-2.1,1.8
		C162.9,338.8,162.9,337.6,162.8,336.4z"/>
	<path class="st0" d="M254,235.3c-0.6,11.7-3,22.3-8.9,32c-7.2,11.9-18.6,17.2-32.3,14.5c-8.6-1.7-16.6-5.1-23.8-10.2
		c-2.5-1.8-4.4-4.8-5.7-7.7c-1.5-3.3-0.3-4.3,3.4-3.9c14.4,1.8,28.2-0.2,40.4-8.5c4.9-3.3,8.9-8,13-12.5c2.9-3.2,5.1-7.1,7.9-10.6
		c0.9-1.1,2.3-1.7,3.5-2.5c0.6,1.2,1.5,2.4,1.8,3.7C253.7,231.7,253.8,233.8,254,235.3z"/>
	<path class="st0" d="M249.1,209.9c-0.4,1.6-0.6,3.2-1.2,4.7c-3.9,8.5-10,14.8-18.7,18c-2.7,1-6,0.9-8.9,0.4
		c-3.4-0.6-4.6-3.4-2.4-6.2c1.9-2.5,4.7-4.5,7.3-6.2c1.4-0.9,3.3-1,5.1-1.3c7.1-1.2,14-3,18.1-9.9
		C248.5,209.6,248.8,209.7,249.1,209.9z"/>
	<path class="st0" d="M192,198.7c-1.5,0-3.1,0.1-4.6,0c-3.7-0.2-6.8,0.9-8.5,4.4c-1.7,3.5-1.4,6.9,0.7,10
		c4.1,6.2,10.3,9.4,17.1,11.5c1.5,0.4,3,0.6,4.5,1.1c0.6,0.2,0.9,1,1.4,1.6c-0.6,0.4-1.1,1.1-1.7,1.1c-8.6,1.1-23.9-10-25.8-18.6
		c-1.4-6.4,2.6-12.7,9-13.7c3-0.5,6.1-0.3,9.2-0.1c9.6,0.6,14.7-3.2,15.6-12.8c0.5-5.4-0.5-10.9-0.8-16.4c0-0.8-0.5-1.5-0.4-2.2
		c0.1-0.7,0.5-1.3,0.8-1.9c0.6,0.4,1.6,0.7,1.7,1.2c2.5,9.9,3.8,19.8-1.8,29.1c-2.7,4.5-7.2,6.3-12.4,6c-1.3-0.1-2.6,0-4,0
		C192,198.8,192,198.7,192,198.7z"/>
	<path class="st0" d="M176.4,242.4c4.7,1.2,8.2-0.6,11.7-3c3.6-2.5,7.3-4.8,11.2-6.9c2.4-1.3,5.1-1.5,7.1,1.1
		c2.1,2.7,2.4,6.6,0.1,8.8c-1.9,1.8-4.3,3.6-6.8,4.3c-7.5,2-14.8,0.9-21.8-2.6c-0.4-0.2-0.8-0.5-1.1-0.7
		C176.7,243.4,176.7,243.1,176.4,242.4z"/>
	<path class="st0" d="M241.4,157.6c-3.6-1.9-7.4-4.4-11.6-5.8c-4.3-1.4-8.9-1.7-13.9-2.6c1.6-3.7,4.3-5,7.2-5.3
		C229.9,143,240.4,151.4,241.4,157.6z"/>
	<path class="st0" d="M180.4,164.8c-0.7-8.7,9.3-17.5,17.7-15.6c0.8,0.2,1.8,0.8,2,1.4c0.2,0.5-0.6,1.6-1.2,2
		c-1.1,0.7-2.3,1.4-3.5,1.7c-5.3,1.3-9.2,4.5-12.4,8.6c-0.7,0.8-0.9,2-1.4,3C181.2,165.5,180.8,165.2,180.4,164.8z"/>
	<path class="st0" d="M224.1,164.4c1,1.7,2.1,3.7,4.1,0.9c1.8,3.2,1.4,5.4-0.9,6.6c-2.3,1.2-5.1,0.2-6-2.2
		C220.3,167.2,221,165.2,224.1,164.4z"/>
	<path class="st0" d="M197.4,167.2c0.9,2.4,2.2,3.3,4,1c1.8,3,1.5,5.1-0.6,6.4c-2.2,1.3-5.1,0.4-6.2-1.8
		C193.4,170.5,194.1,168.9,197.4,167.2z"/>
	<path class="st0" d="M169.3,256.1c0.3-1.2,0.3-2.1,0.8-2.6c0.9-1,2-1.8,3-2.7c-0.1,1.1-0.1,2.3-0.3,3.4c-0.1,0.6-0.2,1.3-0.5,1.9
		c-0.4,0.8-0.9,1.5-1.4,2.2C170.3,257.4,169.8,256.7,169.3,256.1z"/>
	<path class="st0" d="M258.4,281.2c-0.7,0.9-1.5,2.4-2.2,2.4c-1.5,0-3-0.8-4.4-1.5c-0.1,0,0.1-1.6,0.4-1.7c1.7-0.5,3.4-0.9,5.1-1.1
		C257.6,279.3,257.9,280.3,258.4,281.2z"/>
	<path class="st0" d="M168.7,294.4c-0.9,0.6-1.9,1.4-1.9,1.3c-1.1-1.4-2.2-2.8-3.1-4.3c-0.1-0.2,0.7-1.1,1.1-1.6
		C166,291.3,167.2,292.7,168.7,294.4z"/>
	<path class="st0" d="M255.5,215.5c1.8,1.1,3.3,2.1,4.7,3.1c-0.5,0.5-1.1,1.4-1.3,1.3c-1.7-0.7-3.3-1.7-5-2.5
		C254.3,216.8,254.8,216.3,255.5,215.5z"/>
	<path class="st0" d="M257.2,266.6c1-1.5,1.8-2.7,2.6-3.9c0.4,0.7,1.2,1.4,1.1,1.9c-0.4,1.4-1.1,2.8-1.7,4.2
		C258.6,268.1,258,267.5,257.2,266.6z"/>
	<path class="st0" d="M191.3,306.3c1.6,1.3,2.9,2.3,4.2,3.3c-0.6,0.4-1.3,1.2-1.6,1.1c-1.4-0.6-2.7-1.6-4-2.4
		C190.2,307.8,190.6,307.3,191.3,306.3z"/>
	<path class="st0" d="M249.2,283.1c0.7,1.3,1.4,2.1,1.2,2.4c-0.6,1-1.4,1.9-2.2,2.8c-0.3-0.6-1.1-1.3-0.9-1.7
		C247.6,285.6,248.3,284.7,249.2,283.1z"/>
	<path class="st0" d="M204,297.2c-1.6,0.8-2.4,1.4-2.7,1.3c-1.2-0.7-2.3-1.6-3.4-2.4c0.5-0.3,1.1-1.1,1.4-1
		C200.6,295.5,201.9,296.2,204,297.2z"/>
	<path class="st0" d="M248.7,299.3c-1.3,0.8-2.2,1.6-3.2,2c-0.2,0.1-0.8-0.9-1.3-1.4c0.9-0.7,1.8-1.5,2.8-2
		C247.2,297.8,247.9,298.6,248.7,299.3z"/>
	<path class="st0" d="M173.6,496.4c-0.3-0.7-0.9-1.5-0.7-1.9c1.2-2.1,2.6-4,3.9-6c0.6,0.4,1.8,1.2,1.8,1.3c-1.2,2.1-2.5,4.1-3.8,6.1
		C174.7,496.1,174.2,496.1,173.6,496.4z"/>
	<path class="st0" d="M148.5,565.1c0-0.7-0.2-1.4,0-1.9c0.2-0.6,0.8-1.1,1.2-1.7c0.5,0.5,1.3,0.9,1.4,1.4c0.3,1.5,0.4,3.1,0.2,4.6
		c-0.1,0.7-0.8,1.4-1.2,2.1c-0.5-0.7-1.2-1.3-1.5-2.1c-0.2-0.7-0.1-1.5-0.1-2.3C148.5,565.1,148.5,565.1,148.5,565.1z"/>
	<path class="st0" d="M149.1,577.7c0-0.4-0.1-0.9,0-1.3c0.4-0.9,0.9-1.7,1.3-2.5c0.5,0.7,1.2,1.4,1.4,2.2c0.3,1.3,0.3,2.6,0.1,3.9
		c-0.1,0.7-0.8,1.4-1.2,2c-0.5-0.7-1.2-1.3-1.5-2.1C149,579.3,149.2,578.5,149.1,577.7C149.1,577.7,149.1,577.7,149.1,577.7z"/>
	<path class="st0" d="M161.7,520c-0.8-0.8-1.5-1.3-1.4-1.5c0.7-1.9,1.5-3.8,2.5-5.6c0.1-0.2,1.1,0.1,1.7,0.2
		c-0.2,0.9-0.2,1.9-0.5,2.7C163.4,517.2,162.6,518.4,161.7,520z"/>
	<path class="st0" d="M168,508.6c-0.8-1.4-1.5-2.2-1.3-2.5c1-1.6,2.2-3.1,3.3-4.6c0.5,0.4,1.4,1,1.3,1.1
		C170.4,504.5,169.3,506.2,168,508.6z"/>
	<path class="st0" d="M146.2,551.7c0.8-0.8,1.4-1.3,1.9-1.8c0.8,1.4,1.6,2.8,2.2,4.3c0.1,0.4-0.8,1.2-1.2,1.8
		C148.1,554.7,147.2,553.4,146.2,551.7z"/>
	<path class="st0" d="M148.3,600.1c0.9-1.1,1.5-1.8,2.1-2.6c0.5,1.2,1.3,2.4,1.4,3.6c0.1,0.8-0.7,1.8-1.2,2.7
		C150,602.7,149.2,601.5,148.3,600.1z"/>
	<path class="st0" d="M155.6,534.2c-1.1,1.3-2,2.3-2.8,3.3c-0.4-0.5-1.2-1.3-1.1-1.6c0.5-1.1,1.3-2.1,1.9-3.1
		C154.1,533.1,154.6,533.5,155.6,534.2z"/>
	<path class="st0" d="M151.9,590.3c-0.8,0.9-1.4,1.5-2,2.1c-0.4-0.7-1.3-1.5-1.2-2.2c0-0.7,0.9-1.4,1.4-2.1
		C150.6,588.7,151.2,589.4,151.9,590.3z"/>
	<path class="st0" d="M243.7,488c-0.4-1.3-1-2.5-1.1-3.8c-0.1-0.6,0.7-1.3,1.1-1.9c0.9,1.5,1.8,3,2.6,4.6c-0.9,0.3-1.8,0.7-2.7,1
		C243.6,487.9,243.7,488,243.7,488z"/>
	<path class="st0" d="M254.7,504c1,2,1.9,3.6,2.6,5.2c0.1,0.2-0.7,0.9-1.1,1.3c-1.1-1.5-2.1-3.1-3.1-4.7
		C253,505.6,253.8,505,254.7,504z"/>
	<path class="st0" d="M267.3,556.8c1-1.4,1.8-2.5,2.6-3.7c0.4,0.8,1.3,1.6,1.1,2.2c-0.4,1.3-1.3,2.5-1.9,3.7
		C268.5,558.5,268,557.8,267.3,556.8z"/>
</g>
</svg>
