<?xml version="1.0" encoding="utf-8"?>
<!-- Generator: Adobe Illustrator 27.0.1, SVG Export Plug-In . SVG Version: 6.00 Build 0)  -->
<svg version="1.1" id="Laag_1" xmlns="http://www.w3.org/2000/svg" xmlns:xlink="http://www.w3.org/1999/xlink" x="0px" y="0px"
	 viewBox="0 0 453 705.5" style="enable-background:new 0 0 453 705.5;" xml:space="preserve">
<style type="text/css">
	.st0{fill:#E72870;}
</style>
<g>
	<path class="st0" d="M231.5,244.2c6.7-3.4,10.7-2,12.7,5c1.1,3.9,1.3,8.2,1.2,12.3c0,2,0.2,3.2,1.6,4.5
		c7.5,6.5,14.4,13.7,19.7,22.1c3.8,6.1,7.3,12.5,9.7,19.2c4.8,13.4,1.6,25.5-8.1,35.9c-2.3,2.5-4.8,4.9-7.3,7.2
		c-0.6,0.5-1.5,0.7-2.2,1c0.4,0.4,0.8,0.8,1.2,1.3c0.6-0.5,1.3-1.1,1.9-1.6c2.5-2.1,4.3-2.2,6.6,0c1.3,1.3,2.4,1.4,3.9,0.5
		c7.4-4.4,14.8-8.8,22.3-13c11.4-6.4,22.8-12.8,34.3-18.9c3.4-1.8,5.9-4.1,7.4-7.5c3.8-8.6,7.6-17.3,11.2-26
		c3.7-8.9,7.1-17.9,10.6-26.9c0.3-0.8,0.4-2.2-0.1-2.6c-4.2-3.7-5.7-8.7-7.1-13.9c-1.4-5.2-3.6-10.2-4-15.5c-0.4-5.1-2-9.6-3.7-14.3
		c-0.5-1.3-0.1-3.6,0.8-4.5c0.9-0.9,3.2-1.3,4.5-0.9c1.5,0.4,3.1,1.8,4,3.1c1.6,2.7,2.6,5.7,3.9,8.6c1.2,3,3.1,5.2,6.4,6
		c1.2,0.3,2.2,1.2,3.4,1.8c1.9-3,3.7-6.2,5.9-9c1.8-2.3,3.8-4.5,6.2-6.3c3.1-2.4,6-1.7,7.8,1.8c0.7,1.3,1.3,1.9,2.9,1.8
		c2.2-0.2,3.9,0.8,4.5,3.2c0.1,0.6,0.8,1.1,1.3,1.5c0.2,0.2,0.6,0.2,0.7,0.4c2.7,3.9,6,7.6,7.8,11.9c1.5,3.5-1.1,6.9-3.3,9.9
		c-2.3,3.1-4.9,5.8-8.7,7.1c-0.8,0.3-1.4,1.3-2.1,2c-2,2.3-3.8,4.7-6,6.8c-2,1.8-4.4,2.7-7.5,1.4c-0.8,2.6-1.5,5-2.3,7.5
		c-5.2,16.9-10.3,33.8-15.5,50.7c-0.6,2-1.5,4-2.4,5.9c-1.8,4.3-4.5,7.6-8.5,10.2c-20.3,13.1-40.5,26.4-60.7,39.7
		c-0.9,0.6-1.5,1.8-2.1,2.7c-0.5,0.7-0.6,1.7-1.2,2.2c-3.2,2.5-2.2,5-0.6,8.1c8.2,15.5,14,31.8,16.2,49.3
		c1.7,13.8,1.2,27.6-1.7,41.2c-0.2,1.1-1.1,2.3-2,3.1c-6,5.2-13,8.6-20.5,10.9c-9.9,3-20,5.6-30.1,8c-2.9,0.7-4,1.8-4.2,4.8
		c-1.2,18.4-2.6,36.8-4,55.2c-0.7,8.8-1.7,17.5-2.5,26.3c-0.1,1.1,0.2,2.4,0.8,3.3c8.3,12.3,15.2,25.4,21.2,39
		c0.8,1.7,1.6,2.5,3.5,2c0.7-0.2,1.5-0.3,2.2-0.3c3.5-0.2,5,1.8,3.8,5.1c-0.2,0.6-0.4,1.2-0.8,1.8c-4.9,7.4-6.3,15.9-8.4,24.3
		c-2.3,9.5-5.1,18.9-8,28.3c-0.8,2.7-2.5,5.2-4.2,7.4c-1.9,2.5-4.1,2.6-5.6,0c-2-3.4-3.8-7.2-4.6-11.1c-1.8-8.5-0.4-17,2-25.3
		c2.2-7.6,5.1-15.1,7.6-22.6c0.3-0.9,0.5-2.3,0-3c-4.4-7.5-8.9-14.9-13.4-22.4c-0.4-0.6-0.8-1.2-1.5-2.2c-2.5,8.9-5,17.4-7.4,26.1
		c1.2,0.5,2.1,0.8,3.1,1.2c4.1,1.7,4.9,4.7,2.1,8.1c-1.2,1.5-2.7,2.9-4.4,3.8c-9.6,5.6-17.3,13.3-24.8,21.3c-2.5,2.6-5.1,5.2-8,7.2
		c-2.1,1.5-4.7,2.6-7.3,3c-3.2,0.6-4.8-1.2-4.2-4.4c0.6-3.1,1.3-6.3,2.8-8.9c5.5-9.8,12.3-18.6,21.6-25.1c2.5-1.7,5.3-3,7.9-4.6
		c0.9-0.6,2-1.8,2.1-2.8c1.2-11,1.8-22,3.5-32.9c1.1-7.2-0.5-12.9-4.8-18.7c-2.5-3.3-4.2-7.6-5.2-11.8c-5.6-22.5-10.8-45-16.1-67.6
		c-0.5-2.1-1.9-2-3.3-2.2c-10.7-1.9-21.2-4.7-30.8-10c-4.8-2.7-9.2-6.1-13.6-9.5c-1.1-0.8-1.8-2.8-1.9-4.2
		c-2-28.4,5.2-55.1,15.4-81.2c0.3-0.8,0.7-1.7,1-2.5c-3.4-2.3-6.9-4.5-6.4-9.5c-0.8-0.2-1.5-0.3-2.2-0.4c-24.1-3.2-48-7-71.7-12.7
		c-2.6-0.6-5.2-1.4-7.7-2.3c-1-0.4-1.9-1.2-2.8-1.9c0.7-1,1.2-2.3,2.1-3c4-2.7,8-5.4,12.2-7.7c15.8-8.5,31.6-16.7,47.4-25.1
		c0.5-0.3,1-0.5,1.6-0.9c-0.3-0.7-0.6-1.4-0.9-2c-7-13.6-1.6-30.7,11.9-37.8c1.4-0.7,2.8-1.2,2.8-3.3c0-0.8,1.3-1.6,2.3-2.6
		c-3-1.9-6-3.8-9.1-5.6c-4.7-2.8-9-6.1-10.8-11.5c-0.8-2.3-0.8-4.9-0.7-7.3c0-0.9,1.1-2.3,2-2.7c1.9-0.9,1.8-2,0.8-3.2
		c-1.7-2.1-3.5-4-5.2-6.1c-6.8-8.3-11.2-17.6-10.1-28.6c1.1-11.7,5.9-21.6,15.6-28.6c1.3-1,2.9-1.6,4.4-2.3c1.9-0.8,3.9-1.6,6-2.3
		c-3-8-3.2-16-1.6-24c2.1-10.2,7.5-18.3,18.2-20.5c14-2.8,25.8,0.8,32.5,15.1c2,4.2,3.4,8.7,4.9,12.5c2.3-0.8,4.8-2.1,7.3-2.2
		c2-0.1,4.5,0.9,6.1,2.2c2.2,1.8,4.2,4.2,5.7,6.7c2.5,4.2,4.2,8.7,3.7,13.7c-0.2,2,0.3,3,2.8,2.8c3.1-0.2,5,2.1,6.6,4.4
		c3,4.3,4.1,9.3,4.6,14.4c1,9.7,1.8,19.3,2.7,29C231.2,242.1,231.4,243,231.5,244.2z M226.3,582.5L226.3,582.5c-1-1.3-1.8-3-3.1-4.1
		c-2.6-2.3-3.4-5.2-3.6-8.4c-0.2-3.4-0.3-6.8-0.7-10.2c-2.1-18-4.4-36-6.5-54c-0.2-1.5-0.8-2-2.3-2c-5.5-0.3-11.1-0.7-16.6-1
		c-0.7,0-1.4,0.1-2.2,0.1c0.2,0.8,0.3,1.4,0.4,1.9c5.1,21.5,10.3,43,15.3,64.6c1.2,5.3,3.4,10.1,6.5,14.6c5.6,8,11.4,16,16.7,24.2
		c4.9,7.5,9.2,15.4,13.9,23.1c2.7,4.4,3,4.3,7.5,2.1c0-1.6,0-2.9,0-4.3c0.8,0.3,1.6,0.5,2.7,0.9c-2.8-5.9-5.6-11.7-8.5-17.7
		c-1.8,2.1-2.7,1.1-3.5-0.5c-0.8-1.6-2.2-3.2,1.2-3.6c-0.6-1.1-1.1-2-1.3-2.2c-1.4-0.1-2.2-0.2-3.1-0.2c0.4-0.9,0.8-1.7,1.4-2.8
		c-0.2-0.4-0.7-1.3-1.2-2c-0.8-1.2-1-3.1-3.5-2.5c-1.2,0.3-2.6-3-2.1-4.4c0.7-1.9-0.2-2.5-2-3.1c-1.5-0.5-2.8-2-4-3.3
		c-0.2-0.3,0.7-1.5,1.3-2.9C228.2,584.2,227.2,583.4,226.3,582.5z M180.4,353.8c-0.8,1.1-1.4,1.9-1.9,2.7
		c-7.8,11.8-14.3,24.2-19.7,37.3c-11,26.4-18.7,53.5-17.1,82.5c0.1,2.2,0.6,4,2.4,5.2c4.1,2.7,7.9,5.9,12.2,8.1
		c18.9,9.6,39.3,12.5,60.2,11.5c17.4-0.8,34.2-5.2,50.9-10c8.9-2.6,17.6-5.8,25-11.7c1.2-0.9,2.2-2.6,2.5-4
		c3.1-15.1,3.2-30.2,0.4-45.3c-4.8-25.2-16-47.6-30.5-68.5c-1.4-2-3.2-3.7-4.8-5.5c-11.9,10.2-25.5,15.2-40.7,15.6
		C203.5,372.2,190.7,365.9,180.4,353.8z M181.4,342.2c8.5,18.1,24.6,27.3,44.1,23.6c17.1-3.2,30.9-12.4,42.3-25.4
		c9.4-10.8,10.5-22.8,5.4-35.8c-4.5-11.4-11.7-21-20.2-29.6c-7-7.1-14.5-13.8-20.2-22.1c-0.3-0.5-1-0.7-1.5-1.1c-1-0.7-2.3-1.1-3-2
		c-1.5-1.9-2.8-4-3.9-6.1c-3.9-7.2-9.1-13.3-15.3-18.5c-2.7-2.3-5.8-4.4-9-5.9c-5.5-2.7-9.6-1.2-12.6,4.1c-0.8,1.4-1.5,2.8-2.3,4.1
		c-1.3,2.2-3.1,3.1-5.6,2.3c-1.2-0.3-2.3-0.8-3.5-1c-13.4-2.8-22.3,0.1-25.2,15.9c-0.9,5-0.7,10.3-0.3,15.5
		c0.6,6.9,2.1,13.7,4.8,20.1c4-0.2,4.5,0,7.7,2.7c0.9,0.8,1.8,1.6,2.6,2.5c8.8,9,15.1,19.6,21,30.6c2,3.7,3.9,7.6,5.4,11.5
		c1.9,4.7,1.1,7.1-3,10C186.7,339.3,184.1,340.6,181.4,342.2z M374.7,234.1c-0.4,0.3-0.7,0.5-1,0.7c-1.7,1.8-3.5,3.5-6.3,2.4
		c-2.7-1-2.8-3.3-2.7-5.8c0.1-1.8-0.8-3.2-2.8-3.7c-4.3-1-6.5-4.2-8.1-8.1c-1-2.5-2-5-3.2-7.4c-0.9-1.8-2.5-3.2-4.5-2.3
		c-2.2,1-0.6,2.9-0.1,4.3c0.8,2.2,2.1,4.3,2.7,6.6c0.7,2.8,0.6,5.8,1.3,8.6c1.4,5.7,2.8,11.5,4.6,17.1c2.2,7.3,6.6,12.1,15.9,8.8
		c0.6-0.2,1.4,0.2,2.1,0.4c-0.4,0.6-0.8,1.6-1.3,1.7c-2.6,0.5-5.3,1.1-7.9,1.1c-1.9,0-2.7,0.5-3.4,2.2c-3.5,9-6.9,18-10.6,26.9
		c-3.8,9.1-7.7,18.2-11.9,27.2c-1.1,2.3-3.2,4.4-5.4,5.7c-15.6,9-31.4,17.8-47.1,26.7c-4.3,2.4-8.6,4.9-12.7,7.3
		c4,5.8,7.9,11.6,11.9,17.5c0.5-0.3,1.3-0.7,2-1.1c19.7-12.9,39.3-25.9,59.1-38.6c3.9-2.5,6.6-5.6,8.1-9.8c3.4-9.8,6.9-19.6,10-29.4
		c3.5-11,6.5-22.2,9.7-33.3c0.6-2.3,1.7-3.1,4.1-2.1c0.8,0.3,1.9,0.3,2.6,0c3.6-1.6,5.9-4.5,7.7-8c-3.4-2.5-7.8-3.4-8-8.4
		c0-0.1-0.2-0.3-0.4-0.3C375.2,240.4,375.3,237.1,374.7,234.1z M159.7,362.8c-5.7,0-11.2,0.1-16.7,0c-13.6-0.3-27.2-0.7-40.8-1.1
		c-0.7,0-1.4-0.5-2.2-0.8c0.4-0.7,0.7-1.7,1.3-2.2c1-0.8,2.1-1.5,3.3-2c8-3.8,16-7.7,24.1-11.4c6.1-2.8,12.5-5.2,18.6-8
		c3.7-1.7,5.7-4.8,6.2-8.9c0.7-5.9,0.6-12.1,3.9-17.5c0.3-0.5-0.1-1.3-0.1-2c-0.8,0.1-1.8-0.1-2.2,0.4c-4.1,4.4-7.7,9-7.1,15.6
		c0.1,0.9-0.5,1.8-0.7,2.8c-0.6-0.8-1.4-1.6-1.6-2.5c-0.8-4.7,0.3-9.2,2.6-13.4c1.4-2.5,2.9-4.9,4.1-7.5c0.4-0.9-0.1-2.1-0.2-3.2
		c-1.1,0.1-2.4-0.1-3.3,0.4c-1,0.5-2,1.6-2.4,2.6c-1.7,3.8-3.7,7.5-4.6,11.5c-0.8,3.4-0.3,7.1-0.5,10.7c0,0.6-0.5,1.2-0.8,1.8
		c-0.5-0.5-1.1-0.8-1.4-1.4c-0.3-0.5-0.3-1.3-0.3-1.9c-0.6-10.4,1.9-19.6,10.5-27.2c-1.8-0.3-3.6-1.2-4.5-0.6
		c-7.2,4.2-12.2,10.2-11.9,19c0.1,3.9,1.5,7.8,2.3,11.6c0.1,0.8-0.1,1.7-0.2,2.5c-0.7-0.6-1.6-1-2-1.8c-0.7-1.6-1.3-3.3-1.7-5
		c-2.5-9.9-0.4-18.6,7.6-25.3c1.7-1.4,3.5-2.6,5.3-3.9c-0.5-1.6-1-2.3-2.8-1.5c-13.3,5.9-18.9,24.5-10.8,36.4c1.5,2.3,0.9,2.9-1.2,4
		c-18.6,9.8-37.1,19.8-55.6,29.7c-1.9,1-3.6,2.4-5.9,3.9c1.4,0.5,2.2,0.8,3,1c15.2,3.2,30.4,6.6,45.7,9.4
		c10.3,1.9,20.7,3.2,31.1,4.6c0.9,0.1,2.5-0.1,2.8-0.7C153.6,375.2,156.5,369.3,159.7,362.8z M214.5,504.2c0.1,0.9,0.2,1.8,0.3,2.7
		c2.3,20.1,4.9,40.3,6.7,60.4c0.5,6.1,3.4,10,7,13.4c3.4-1.6,4.4-4.4,3.7-8c-1.9,0.5-2.6-0.7-2.1-2.3c0.3-0.9,1.4-1.5,2.1-2.2
		c0.2,0.1,0.5,0.3,0.7,0.4c0.6-6.7,1.1-13.4,1.6-19.3c-1.2-0.9-1.9-1.4-2.5-1.9c0.8-0.6,1.7-1.2,2.9-2.1c0-0.6,0.1-1.7,0.1-2.4
		c-1-0.4-1.9-0.5-2.4-1.1c-0.3-0.3-0.2-1.6,0.1-1.7c0.7-0.4,1.6-0.4,2.6-0.6c0.9-12.7,1.8-25.6,2.7-38.4
		C230,502.2,222.5,503.2,214.5,504.2z M154.5,306.1c5.5-0.1,6.9,2.2,4.6,7.3c-0.2,0.4-0.5,0.8-0.6,1.3c-2.5,7.7-4,15.5-0.7,23.4
		c2.6,6.1,6.4,7.8,12.7,5.6c3.2-1.2,6.4-2.4,9.5-3.9c10-4.9,9.7-3.2,5.1-13.3c-6.1-13.7-15.2-25.6-24.6-37.1
		c-0.3-0.4-0.8-0.7-0.7-0.6C158,294.4,156.2,300.3,154.5,306.1z M105.9,358.3c0.1,0.3,0.2,0.6,0.2,1c0.3,0.1,0.7,0.2,1,0.2
		c17.7,0.4,35.4,0.8,53,1.1c0.6,0,1.5,0.1,1.9-0.2c3.1-2.9,7-2.3,10.8-2.6c0.8-0.1,2-0.3,2.4-0.9c2-2.6,4.1-5.1,5.4-8
		c0.5-1.3-0.8-3.5-1.6-5.1c-0.2-0.4-2-0.3-2.9,0c-1.8,0.6-3.5,1.6-5.4,2.3c-7.1,2.4-12.1,0.2-15.1-6.7c-0.6-1.4-1.1-2.8-1.4-3.7
		c-4.1,2.4-8,4.8-12.1,6.8c-2.8,1.4-5.9,2.2-8.8,3.5C124.3,350.1,115.1,354.2,105.9,358.3z M172.9,360.5c-4.7-0.6-7.4-0.3-8.8,1.6
		c-4.8,6.6-9.2,13.4-11.7,21.3c-0.3,0.9-0.5,1.8-0.5,2.7c0,2.6,1.8,4.2,3.8,4.9c2.2,0.8,2.1-1.8,2.7-3c2.8-5.5,5.5-11.1,8.3-16.6
		C168.6,367.8,170.7,364.3,172.9,360.5z M218.7,595.7c-0.2,0.1-0.4,0.1-0.6,0.2c-1.2,13.1-2.4,26.2-3.6,39.6
		c1.2,0.1,2.4,0.1,3.8,0.2c-0.6-1-1.1-1.7-1.5-2.3c0.8-0.3,1.6-0.6,2.5-0.9c0.2-0.8,0.5-1.6,0.6-1.9c-0.6-1.4-1-2.3-1.4-3.2
		c0.8-0.3,1.7-0.6,2.7-1c0.7-2.3,1.4-4.8,2.1-7.3c0.1-0.5,0.1-1.3-0.1-1.8c-1.7-3-1.5-3.7,1.7-4.2c0.2-0.9,0.4-1.8,0.6-2.7
		c-2.7-1.8-2.6-3.3,0.3-5C223.4,602.2,221,599,218.7,595.7z M262.6,354.2c5.6,8.5,11.1,16.8,16.6,25.1c3.1-2.8,3.7-4,1.4-7.5
		c-3.9-6.1-8.2-11.9-12.5-17.6C265.8,351.1,264.7,351.4,262.6,354.2z M381.1,213.1c-0.7,0.5-2,1-3,1.9c-4.6,4.4-7.8,9.8-10.5,15.5
		c-0.3,0.6-0.5,1.5-0.4,2.1c0.1,0.7,0.4,1.8,1,2c0.6,0.3,1.6,0,2.3-0.3c0.6-0.2,1-0.8,1.4-1.3c4.1-5.3,8.1-10.5,12.1-15.8
		C385.2,215.9,383.6,213.1,381.1,213.1z M378.9,238.8c1.5-1.2,3.4-2.1,4.4-3.6c2.6-4.2,5-8.6,7.2-13c0.5-1-0.1-2.7-0.2-4
		c-1.6,0.4-3.9,0.3-4.6,1.3c-2.9,4.1-5.4,8.5-7.8,13C376.8,234.4,377.1,236.6,378.9,238.8z M393.3,222.6
		c-2.8,5.9-5.2,12.2-10.4,16.7c-1.3,1.1-0.7,4.1,0.7,5.2c1.8,1.4,2.6-0.3,3.6-1.2c0.7-0.7,1.3-1.5,1.9-2.4c2.4-3.8,5.1-7.5,7.1-11.5
		C397.8,226.3,396.5,223.8,393.3,222.6z M190.8,331.8c-0.5-1.6-0.7-3.4-1.5-4.9c-5.1-9.3-9.9-18.8-15.6-27.8
		c-3.5-5.5-8.4-10-12.8-14.9c-0.7-0.8-1.9-1.2-2.9-1.8C171.1,297.6,182.4,313.5,190.8,331.8z M231.2,246.9c4,5.1,7.6,9.8,11.8,15.2
		c0.9-4.9,0.4-8.7-1-12.5c-1.9-5.1-3.9-5.9-8.6-3.5C232.9,246.3,232.4,246.4,231.2,246.9z M387.5,247.4c1.9-0.3,3.6-0.2,4.8-0.9
		c4-2.5,6.9-6,8.6-10.6c0.9-2.5,0.2-4.4-1.7-5.9C395.4,235.7,391.7,241.1,387.5,247.4z M218.8,369.1c14.9,0,35.7-8.1,38.8-15.6
		C245.8,362.3,233.2,368,218.8,369.1z M183.2,350.4c-0.4,0.1-0.7,0.3-1.1,0.4c0.2,0.7,0.2,1.7,0.7,2.1c3.8,3.4,7.6,6.7,11.5,9.9
		c0.8,0.7,1.9,1.1,2.9,1.6c0.9,0.5,1.9,0.9,2.9,1.4C193.2,362,187.8,356.8,183.2,350.4z"/>
	<path class="st0" d="M275.6,36.8c0.3-0.7,1-1.8,1.4-3c3.8-10.7,12.2-15.9,22.5-18.7c9.9-2.7,19.9-1.6,29.6,1.2
		c18,5.2,33.7,14.3,46.2,28.4c6.3,7.1,8.9,11,6.7,21.9c3.7,0.3,7.4,0.4,11,1c13.2,2.3,20.9,10.7,24.5,23.2
		c6.9,23.9-1.8,50.5-21.7,65.2c-9.1,6.7-19.7,9.5-31,10c0,1.7,0,3.6,0,5.5c0,7.9-3.3,14.2-9.8,18.6c-8.2,5.6-17.2,9.2-27.4,7.4
		c-2.3-0.4-4.8-1.1-6.8-2.2c-8.3-4.6-16-2.7-23.2,2.1c-15.6,10.4-24,25.1-24.6,44c-0.1,4.4,0.3,8.9,0.4,13.3c0,1.6-0.3,3.2-0.5,4.8
		c-0.3,0.1-0.7,0.2-1,0.3c-0.6-0.9-1.4-1.6-1.8-2.6c-4.3-10.1-6.6-20.8-7.7-31.7c-0.6-5.4-1-10.9-1-16.4c0-3.4-1.2-5.7-3.9-7.7
		c-7.9-5.7-12.7-13.7-15.3-22.9c-2.6-9-1-17.8,3.4-26.1c1.1-2.1,3.2-3.7,5-5.8c-4.6-1.3-9.2-2.7-13.9-3.9
		c-13.6-3.4-24.3-10.6-31.4-22.9c-8.9-15.7-10.2-32.3-4.9-49.4c4.5-14.5,12.7-26.7,25.6-35c13.5-8.7,28.3-9.1,43.2-4
		C271.5,32.5,273.2,34.9,275.6,36.8z M269.6,250.8c0.3-0.1,0.6-0.1,0.9-0.2c0-0.2,0.1-0.4,0.1-0.5c0-1.7,0-3.3-0.1-5
		c-0.5-20,7.2-36.1,23.2-47.9c7.9-5.9,16.7-9.7,26.6-4.4c13.2,7.1,28.8,0.2,36.1-6.9c5.7-5.6,7.6-12.5,4.6-20.3
		c-0.2-0.6-0.2-1.6,0.2-2c0.5-0.5,1.5-0.7,2.2-0.6c1.4,0.1,2.7,0.8,4.1,0.7c9.4-0.9,18.6-3.3,26.3-8.9
		c19.7-14.4,28.2-40.2,21.2-63.6c-3.1-10.3-9.2-18-20.2-20.4c-4.2-0.9-8.6-0.9-12.9-1.2c-2-0.1-3.4-0.5-2.5-2.9
		c2.5-7.3,0.2-13.3-4.7-18.9c-12.3-14.1-27.6-23.4-45.4-28.7c-10.2-3-20.5-4.3-30.9-1c-8.7,2.7-16,7.3-19.2,16.6
		c-0.5,1.6-1.3,3.1-2.2,4.5c-0.5,0.9-1.5,1.5-2.2,2.2c-0.7-0.9-1.8-1.6-2.1-2.6c-0.9-2.9-2.9-4.6-5.7-5.1c-4.7-1-9.4-2.2-14.2-2.3
		c-9.5-0.3-18.9,1.1-26.6,7.2c-21.3,16.7-30.5,38.6-24.9,65.4c3.3,15.5,11.8,27.8,27.1,33.9c6.9,2.7,14.1,4.4,21.2,6.6
		c2,0.6,4,1.5,5.9,2.4c0.5,0.3,1,1.2,1,1.8c0,0.4-1.1,1-1.6,0.9c-4.3-0.4-6.6,2.3-8,5.6c-3.8,8.6-5.2,17.4-1.5,26.4
		c3,7.3,7,13.9,13.6,18.5c3,2.1,4.6,4.7,4.7,8.5c0.2,6.8,0.5,13.5,1.5,20.2C266.2,236.1,268.1,243.4,269.6,250.8z"/>
	<path class="st0" d="M182.8,376.6c-1.9,2.6-3.8,5.1-5.8,8c-0.6-0.9-1-1.5-1.5-2.3c-0.3,0.6-0.5,1.3-0.9,1.7
		c-0.7,0.7-1.4,1.4-2.2,2.1c0-1.1-0.2-2.2,0.2-3.1c0.8-1.9,2-3.8,3-5.6c1.3-2.2,2.5-4.3,4-6.4c0.5-0.7,1.4-1.1,2.2-1.7
		c-0.1,1,0,2-0.2,2.9c-0.1,0.5-0.5,0.9-0.5,1.6c0.4-0.4,0.7-1,1.1-1.2c0.4-0.2,1.2-0.4,1.5-0.2c0.3,0.2,0.4,1,0.3,1.5
		C183.6,374.8,183.1,375.8,182.8,376.6L182.8,376.6z"/>
	<path class="st0" d="M268.4,465.7c-0.1-1-0.5-1.9-0.2-2.3c3.2-4.1,6.6-8.2,9.9-12.3c0.3-0.4,1.1-0.3,1.7-0.4
		c0.1,0.6,0.4,1.4,0.1,1.7c-3.2,4.1-6.6,8.2-9.9,12.3C269.8,465,269.3,465.1,268.4,465.7z"/>
	<path class="st0" d="M281.9,456.2c-0.3,0.5-0.5,1-0.7,1.3c-1.5,1.8-2.9,3.6-4.5,5.3c-0.4,0.4-1.2,0.3-1.9,0.4
		c0-0.6-0.2-1.4,0.1-1.7c1.5-2,3.1-3.9,4.8-5.7c0.3-0.3,1-0.5,1.4-0.5C281.4,455.3,281.7,455.9,281.9,456.2z"/>
	<path class="st0" d="M278.5,467.1c-0.7-0.5-1.2-0.6-1.3-0.9c-0.1-0.5-0.1-1.2,0.2-1.5c1.2-1.4,2.5-2.8,3.8-4c0.3-0.3,1-0.3,1.5-0.2
		c0.2,0,0.5,0.8,0.5,0.9C281.6,463.3,280.1,465.2,278.5,467.1z"/>
	<path class="st0" d="M182.7,376.7c0.7-0.2,1.5-0.4,2.2-0.6c0.1,0.5,0.4,1.1,0.2,1.5c-0.4,0.8-1,1.5-1.7,2.1
		c-0.1,0.1-0.9-0.1-0.9-0.2C182.6,378.5,182.7,377.5,182.7,376.7C182.8,376.6,182.7,376.7,182.7,376.7z"/>
	<path class="st0" d="M249.3,280c-0.3,1.4-0.4,2.9-1,4.1c-3.8,8-9.5,13.8-18.3,16c-3.2,0.8-6.9-0.3-7.5-2.2c-1-3,1-5.1,3.1-6.6
		c2-1.4,4.6-2.2,7-3c1.8-0.6,3.8-0.7,5.7-1.2c4.4-1.1,8.1-3.2,10.4-7.3C248.8,279.9,249.1,279.9,249.3,280z"/>
	<path class="st0" d="M238.1,267.4c-0.4,7-3.6,13.6-9,19c-0.5,0.5-1.7,0.5-2.6,0.7c0.3-0.8,0.5-1.9,1-2.5c4.1-4.3,6.7-9.3,7.8-15.1
		c0.3-1.3,0.3-2.8,0.1-4.1c-0.8-6.6-6.8-9.3-12.3-5.5c-2.1,1.5-4,3.3-6.2,4.7c-5,3.4-10.1,3.2-14.9-0.6c-5.4-4.2-8.8-9.9-11.2-16.3
		c-0.2-0.7,0.3-1.6,0.4-2.4c0.6,0.6,1.4,1,1.8,1.7c2.1,3.7,4,7.5,6.3,11c1.1,1.7,2.9,3.1,4.6,4.4c3.9,2.8,7.9,2.8,11.8-0.1
		c2-1.5,4-3,6-4.5c3.3-2.5,6.8-3.3,10.6-1.1C236.4,259,238,262.4,238.1,267.4z"/>
	<path class="st0" d="M192.2,296.1c4.4,1,7.4-0.5,10.3-2.5c2.9-2.1,6-4,9.1-5.7c2.1-1.1,4.5-1.5,6.2,0.9c1.8,2.4,1.8,5.6-0.1,7.7
		c-1,1.1-2.2,2-3.5,2.7C208.7,301.9,197.8,300.6,192.2,296.1z"/>
	<path class="st0" d="M162.6,253c1.1-5.3,9.2-12.1,14.8-12c2.7,0.1,4.8,1.4,7,4.1c-2,0.6-3.4,1.1-5,1.4c-2.9,0.6-6,0.7-8.7,1.7
		C167.9,249.4,165.3,251.4,162.6,253z"/>
	<path class="st0" d="M207.5,225.4c-1.1,0.5-1.7,0.9-2.3,1.1c-4.5,1.3-8.4,3.5-11.5,7.3c-0.9,1.1-2.8,1.5-4.2,2.2
		c0.3-1.6,0.2-3.4,0.9-4.9C193.4,225.4,201.1,222.7,207.5,225.4z"/>
	<path class="st0" d="M207.9,309.5c1.3-0.8,2.7-1.5,4-2.5c2.2-1.8,4.5-2,6.9-0.6c2.5,1.5,3.8,4.2,3,6.8c-0.2,0.6-0.9,1.1-1.4,1.6
		c-0.3-0.6-0.7-1.2-0.9-1.8c-0.4-1.2-0.4-2.6-1.1-3.6c-1.2-1.8-3.6-2-5.3-0.3c-1.8,1.8-3.7,2.5-6.2,2.3c-3-0.2-3.9,2.2-4.9,4.4
		c-0.4,0.8-1.2,1.4-1.8,2.1c-0.2-1-0.7-2.1-0.4-3C200.8,311.1,203.7,308.9,207.9,309.5z"/>
	<path class="st0" d="M208.1,330.6c-0.1,0-1,0-1.3-0.3c-2.4-2.4-4.8-4.9-7.1-7.4c-0.5-0.5-0.7-1.4-0.7-2.1c0-0.5,0.5-1.1,0.8-1.6
		c0.5,0.3,1.3,0.5,1.4,1c0.7,2.2,2,3.7,4.2,4.4c0.4,0.1,0.7,0.6,1,0.9c0.8,0.9,1.8,2.6,2.5,2.4c2.3-0.4,4.8-1.1,6.5-2.5
		c1.5-1.2,2-3.7,3.1-5.5c0.4-0.6,1.2-1,1.9-1.5c0.1,0.8,0.5,1.6,0.4,2.3C219.2,326.9,214.7,330.6,208.1,330.6z"/>
	<path class="st0" d="M201.4,241.7c1.6,2,2.7,1.6,3.4-0.5c2.4,0.3,3.2,1.7,2.8,3.9c-0.4,2.1-2.6,3.2-4.8,2.6
		C200.6,246.9,200.1,245.1,201.4,241.7z"/>
	<path class="st0" d="M176.7,252.9c0.4,2.9,1.9,2.2,3.4,1.2c1.7,1.9,1.8,3.5-0.1,5.1c-1.5,1.3-4,0.9-5.2-0.7
		C173.5,256.7,173.9,255.2,176.7,252.9z"/>
	<path class="st0" d="M204.9,344.3c1.6,1.9,3.2,3.9,4.7,5.9c0.1,0.2-0.2,0.9-0.5,1.1c-0.3,0.2-1,0.1-1.2-0.2c-1.5-1.5-3-3-4.3-4.7
		c-0.3-0.3,0.2-1.2,0.4-1.9C204.2,344.4,204.5,344.4,204.9,344.3z"/>
	<path class="st0" d="M260.5,305.7c0.2-0.3,0.6-1.1,1-1.9c0.5,0.7,1.2,1.4,1.4,2.2c0.3,1.2,0.5,2.5,0.5,3.8c0,0.6-0.6,1.2-0.9,1.8
		c-0.5-0.5-1.2-1-1.4-1.7C260.7,308.7,260.7,307.5,260.5,305.7z"/>
	<path class="st0" d="M247,315.5c0,0.5,0.1,1.2,0,1.6c-0.2,0.5-0.7,0.9-1.1,1.3c-0.4-0.4-0.9-0.8-1.2-1.3c-0.2-0.4-0.2-0.9-0.1-1.4
		c0.3-1.2,0.6-2.4,1-3.6c0.6,1,1.2,2.1,1.8,3.1C247.2,315.3,247.1,315.4,247,315.5z"/>
	<path class="st0" d="M251.5,350.5c-0.7-0.9-1.4-1.7-1.3-1.8c1-1.3,2.1-2.4,3.1-3.6c0.4,0.4,1.2,1,1.1,1.1
		C253.7,347.6,252.7,348.9,251.5,350.5z"/>
	<path class="st0" d="M234.3,355.4c-0.7,0.9-1.3,1.6-1.8,2.3c-0.4-1-1.1-2-1.2-3.1c-0.1-0.7,0.7-1.5,1-2.2
		C232.9,353.3,233.5,354.2,234.3,355.4z"/>
	<path class="st0" d="M240,325.3c-0.7,0.8-1.1,1.3-1.6,1.8c-0.5-1.2-1.2-2.4-1.5-3.7c-0.1-0.5,0.7-1.2,1.1-1.8
		C238.6,322.8,239.2,323.9,240,325.3z"/>
	<path class="st0" d="M194.7,351.7c-1-1.9-1.7-3.2-2.3-4.6c-0.1-0.3,0.7-0.9,1.1-1.3c0.9,1.3,1.8,2.5,2.5,3.8
		C196.1,349.8,195.4,350.5,194.7,351.7z"/>
	<path class="st0" d="M211.3,354c-1.2,0.7-1.8,1.4-2.1,1.2c-1.3-0.5-2.4-1.3-3.6-2c0.5-0.4,1.1-1.3,1.4-1.2
		C208.2,352.4,209.4,353.1,211.3,354z"/>
	<path class="st0" d="M272.9,315.9c-0.7,0.2-1.8,0.7-2,0.4c-0.8-0.9-1.3-2-1.7-3.1c-0.1-0.3,0.6-1,0.9-1.4c0.7,0.9,1.5,1.8,2.2,2.7
		C272.4,314.9,272.7,315.4,272.9,315.9z"/>
	<path class="st0" d="M271.8,322.4c-0.6,0.9-1.1,1.7-1.6,2.4c-0.4-0.8-1.2-1.6-1.1-2.4c0-0.8,0.8-1.6,1.3-2.3
		C270.8,320.8,271.2,321.5,271.8,322.4z"/>
	<path class="st0" d="M213.6,338.4c0.6,1.1,1.2,2.2,1.7,3.3c0.1,0.1-0.9,1-1,0.9c-1-0.6-2-1.4-3-2.1c0.3-0.4,0.6-0.9,1-1.3
		C212.7,339,213.1,338.7,213.6,338.4z"/>
	<path class="st0" d="M253.8,302.9c0.5,1.1,1,2.2,1.3,3.3c0.1,0.4-0.6,0.9-0.9,1.4c-0.6-1-1.4-2-1.9-3.1c-0.1-0.3,0.4-1,0.6-1.5
		C253.2,302.9,253.5,302.9,253.8,302.9z"/>
	<path class="st0" d="M201.8,357.4c-1,0.7-1.7,1.3-1.9,1.2c-1-0.5-1.9-1.2-2.9-1.8c0.4-0.4,0.9-1.2,1.2-1.1
		C199.2,356.1,200.2,356.7,201.8,357.4z"/>
	<path class="st0" d="M234.9,334.8c-0.7,0.9-1.2,1.6-1.7,2.2c-0.4-0.7-1.1-1.4-1.1-2.2c0-0.6,0.6-1.3,1-2
		C233.6,333.4,234.2,334,234.9,334.8z"/>
	<path class="st0" d="M255.4,298.2c0.7-0.7,1.2-1.1,1.6-1.5c0.5,0.6,1.3,1.2,1.4,2c0.1,0.6-0.6,1.3-1,1.9
		C256.8,299.9,256.2,299.2,255.4,298.2z"/>
	<path class="st0" d="M217.3,355.7c1.1,1,1.9,1.8,2.7,2.6c0.1,0.1-0.9,1.2-1,1.1c-1-0.6-1.9-1.2-2.7-2
		C216.2,357.3,216.8,356.5,217.3,355.7z"/>
	<path class="st0" d="M256.1,330.8c-0.7-1.7-1.2-2.6-1.4-3.6c-0.1-0.4,0.7-0.9,1-1.3c0.5,0.9,1.1,1.7,1.5,2.6
		C257.4,328.9,256.8,329.5,256.1,330.8z"/>
	<path class="st0" d="M237.4,342.9c0.5,0.8,1.1,1.6,1.3,2.4c0.1,0.4-0.5,0.9-0.8,1.4c-0.6-0.6-1.3-1.2-1.6-1.9
		c-0.2-0.5,0.2-1.2,0.4-1.8C236.9,343,237.1,343,237.4,342.9z"/>
	<path class="st0" d="M260.9,321.6c-0.7-1.5-1.2-2.3-1.4-3.2c-0.1-0.4,0.5-1,0.8-1.4c0.6,0.8,1.3,1.6,1.7,2.5
		C262.1,319.8,261.5,320.5,260.9,321.6z"/>
	<path class="st0" d="M215.8,540c-0.4,0.7-0.8,1.3-1.2,2c-0.5-0.5-1.3-1-1.4-1.7c-0.2-1.2,0-2.5,0.1-3.7c0-0.1,1.1-0.3,1.1-0.2
		C214.8,537.5,215.3,538.7,215.8,540z"/>
	<path class="st0" d="M249.6,627.2c-0.7-1.1-1.4-1.9-1.8-2.8c-0.3-0.7-0.2-1.5-0.2-2.2c0-0.1,1.1-0.3,1.1-0.2c0.7,1.3,1.4,2.6,2,4
		C250.8,626.1,250.2,626.5,249.6,627.2z"/>
	<path class="st0" d="M226.3,582.5c-0.7,0.4-2,1.3-2.1,1.2c-1-1-1.8-2.2-2.6-3.4c0.7-0.1,1.5-0.6,1.9-0.3
		C224.5,580.7,225.4,581.7,226.3,582.5C226.3,582.6,226.3,582.5,226.3,582.5z"/>
	<path class="st0" d="M209.5,517c0.6-0.9,1.1-1.4,1.5-2c0.5,0.9,1.2,1.8,1.5,2.8c0.1,0.5-0.6,1.3-0.9,1.9
		C211,518.9,210.3,518,209.5,517z"/>
	<path class="st0" d="M210.1,510.4c-1.5-1.1-1.4-2.5-0.6-4c0.1-0.2,0.9-0.1,1.4-0.2c0.1,1.4,0.3,2.7,0.4,4.1
		C210.9,510.3,210.5,510.3,210.1,510.4z"/>
	<path class="st0" d="M219,564.9c-0.7,0.9-1.1,1.5-1.6,2.1c-0.4-1-1.1-1.9-1.2-2.9c-0.1-0.6,0.7-1.4,1-2.1
		C217.8,562.8,218.3,563.7,219,564.9z"/>
	<path class="st0" d="M231.7,558.6c-0.2-0.5-0.4-1-0.4-1.5c0-1.7-0.1-3.4,0.1-5.1c0.1-0.6,0.8-1.2,1.2-1.8c0.4,0.6,1,1.1,1,1.7
		c-0.1,1.9-0.4,3.9-0.6,5.8c-0.1,0.4-0.3,0.8-0.5,1.3C232.2,558.8,232,558.7,231.7,558.6z"/>
	<path class="st0" d="M235.6,534.2c-0.7,1-1.3,1.7-1.9,2.5c-0.3-0.9-0.9-1.9-0.9-2.8c0-0.8,0.7-1.6,1.1-2.4
		C234.4,532.3,234.9,533.1,235.6,534.2z"/>
	<path class="st0" d="M235.8,524.3c-0.7,1.1-1.3,1.9-1.8,2.7c-0.4-0.7-1.1-1.5-1-2.2c0-0.9,0.7-1.7,1.1-2.5
		C234.6,522.9,235.1,523.4,235.8,524.3z"/>
	<path class="st0" d="M232.8,515.3c0.7-0.9,1.2-1.7,1.7-2.4c0.4,0.7,1.1,1.4,1,2.1c-0.1,0.8-0.8,1.6-1.3,2.4
		C233.8,516.7,233.4,516.1,232.8,515.3z"/>
	<path class="st0" d="M219,620.9c0.8-0.8,1.4-1.3,2-1.9c0.3,0.7,0.9,1.4,0.9,2c-0.1,0.6-0.8,1.2-1.2,1.8
		C220.1,622.2,219.7,621.7,219,620.9z"/>
	<path class="st0" d="M361.3,142.1c0.8-5,1.5-10,2.3-15.4c-31.8,3.2-63.1,9.2-95.4,10.1c1.4,3.5,2.7,6.6,3.9,9.7
		c0.3,0.7,0.7,1.4,0.7,2.1c0,0.7-0.3,1.4-0.5,2.1c-0.5-0.4-1.4-0.7-1.6-1.2c-1.5-3.4-2.8-6.9-4.2-10.3c-1.7-3.9-3.2-4.7,3.4-5.1
		c16.1-1.1,32.1-2.5,48.1-4.2c14-1.5,27.9-3.5,41.9-5.2c0.9-0.1,1.8-0.3,3.3-0.5c-2.4-1.7-4.2-3-6-4.3c-14,7.4-31.7,2.9-42.2-10.9
		c0.2,11.5-7.8,15.6-16.6,18.6c-9.2,3.2-18.6,3.8-28.2,1.1c-0.6,1.1-1,2.3-1.8,3.2c-0.6,0.7-1.5,1.2-2.3,1.7c0.1-0.9,0-1.9,0.3-2.7
		c0.3-1,1-1.9,1.5-3c-0.9-0.5-1.6-0.9-2.3-1.3c-5.5-3.4-8.3-8.2-7.3-14.7c1.1-7.5,4.2-14,10.4-18.7c1.7-1.2,3.8-1.9,5.3-2.6
		c-1-3.7-2.2-7.4-2.9-11.1c-1.5-7.5,1.1-13.7,7-18.2c5.4-4.2,9.8-9.2,13.8-14.7c2.2-3.1,4.7-6.1,7.6-8.4c8.5-7,21.3-5.7,29.2,2.5
		c10.6,11,10,28-1.6,39c-0.7,0.6-1.3,1.3-2.4,2.3c3.4-0.7,6.2-1.5,9-1.9c11.1-1.6,20.8,1.7,28.8,9.4c7,6.7,6.5,18-0.3,25.7
		c-0.9,1-1.9,2-2.9,3.2c3.2,2.4,6.3,4.8,8.8,6.6c-1,2.1-1.9,3.5-2.2,5c-0.8,3.6-1.4,7.3-2.1,10.9C363.5,142.3,363,143.3,361.3,142.1
		L361.3,142.1z M333.6,58.7c-1-3.4-1.6-7-3-10.2c-4.8-10.7-18.9-15.3-28-9c-2.6,1.8-4.9,4.3-6.8,6.8c-4.5,5.9-8.6,12-14.8,16.4
		c-9.5,6.8-8.2,17-4.1,25.3c0.4,0.7,1.8,1.5,2.6,1.3c5.8-0.9,11.6-0.9,17.2,1.1c0.4,0.1,0.9,0.2,1.3,0.1c8.1-1.9,16-4.6,22.8-9.7
		C328.1,75.3,332.9,68.4,333.6,58.7z M281.1,127.4c3.9-0.4,6.8-0.5,9.6-1c6.8-1.2,13.3-3.3,18.3-8.5c2.9-3,4-6.8,1.9-10.4
		c-5.2-8.7-12.2-15.2-23-15.5c-3.1-0.1-6.2,1.4-9.4,1.4c-4.6-0.1-8.5,1.4-11,5.1c-2.2,3.2-4.2,6.8-5.5,10.5
		c-2.6,7.9,0.7,14,8.7,16.4C274.4,126.4,278.3,126.8,281.1,127.4z M363.6,95.6c-2.2-2.5-4-5.4-6.6-7.4c-7.6-5.9-16.4-7.4-25.7-5.4
		c-3.1,0.7-6.6,0.7-7.8,4.9c-0.5,1.8-1,3.1,0.6,4c4.1,2.3,4,5.4,2,9c-0.1,0.2-0.2,0.4-0.2,0.5c0.1,0.8,0,1.8,0.5,2.2
		c0.6,0.5,1.7,0.6,2.5,0.5c0.8-0.1,1.5-0.7,2.2-1.1c2.6-1.2,4.2-0.6,5.2,2.1c0.3,0.8,0.4,1.6,0.7,2.4c0.5,1,1.2,1.9,1.8,2.9
		c1-0.6,2.1-1.1,2.8-1.9c1.6-1.8,2.7-4.1,4.4-5.7c1-0.9,3.1-1.4,4.2-0.9c1.2,0.6,2.2,2.4,2.5,3.8c0.4,1.8-0.2,3.9-0.2,5.8
		c0,0.8,0.6,1.5,0.9,2.2c0.7-0.6,1.6-1,1.9-1.7c0.6-1.6,0.9-3.4,1.3-5.1c1.2-4.6,3.2-5.4,7.2-2.8c0.2-1.7,1.4-3.3-0.9-4.5
		C360.7,98.3,360.7,97.5,363.6,95.6z M318.9,89.8c-6.6,7.1-4.3,15.3,2.4,21.6c5.7,5.3,12.7,8.2,20.3,9.4c4.7,0.7,9.1-0.3,13.1-3.4
		c-5.1-1.7-5.4-2.2-5.1-7.4c0.1-1,0.3-2,0.3-3c0-0.8-0.3-1.6-0.6-3.2c-1.2,1.4-2,2.1-2.6,2.9c-1.3,1.7-2.4,3.6-3.9,5.1
		c-3,3-6.9,1.9-8.3-2.1c-0.5-1.4-0.8-2.8-1.3-4.3c-3.1,1.6-6,3.5-9.1,0.5c-3.3-3.3-0.4-6.3,0.2-9.1
		C322.5,94.3,320.7,92.1,318.9,89.8z M316.2,87.7c-5,1.9-9.7,3.6-14.3,5.3c3.5,3.2,6.8,6.3,10.5,9.7
		C310.8,96.9,313.3,92.3,316.2,87.7z M360.3,105.3c-0.9,3.4-1.6,6.2-2.4,9.1c0.2,0.1,0.4,0.2,0.6,0.3c1.5-2.2,3.1-4.4,4.7-6.7
		C362.2,107.1,361.5,106.4,360.3,105.3z"/>
	<path class="st0" d="M361.3,142c-0.9,0.5-1.7,1.5-2.6,1.6c-18.5,1.5-37.1,2.9-55.6,4.5c-8,0.7-16,1.6-24,2.4
		c-0.9,0.1-1.8-0.5-2.6-0.7c0.8-0.5,1.6-1.5,2.4-1.5c26.1-2.3,52.2-4.6,78.2-6.7C358.5,141.3,359.9,141.8,361.3,142
		C361.3,142.1,361.3,142,361.3,142z"/>
	<path class="st0" d="M311.1,48.7c0.1,10-6.3,18.1-17.3,22c-2.1,0.7-4.3,1.5-6.4,1.4c-1.7,0-4-0.8-4.9-2.1c-0.7-0.9-0.1-3.7,0.9-4.7
		c3.9-3.9,8.3-7.3,12.4-11c1.6-1.4,3-3.1,4.5-4.7c1.1-1.3,1.9-3.1,3.3-4.1c1.4-1.1,3.7-2.5,4.9-2c1.5,0.7,2.3,3.1,3.4,4.7
		C311.5,48.4,311.3,48.5,311.1,48.7z M284.8,68.5c0.2,0.2,0.4,0.4,0.6,0.7c7.5-0.1,13.6-3.4,18.6-8.9c3.6-3.9,4.2-8.7,3.3-13.9
		c-1.8,1.6-3.1,3.4-4.6,5.1c-1.5,1.8-3,3.6-4.8,5.2c-3.2,2.7-6.7,5.2-10,7.9C286.7,65.6,285.8,67.1,284.8,68.5z"/>
	<path class="st0" d="M313.7,62.4c1-0.6,2.9-2.1,3.2-1.8c1.9,1.5,0,3.1-0.6,4.5c-0.3,0.6-0.8,1.5-1.4,1.6c-1.2,0.3-3.4,0.5-3.5,0.2
		c-0.5-1.6-0.5-3.4-0.6-5.2C311.7,62,312.8,62.2,313.7,62.4z"/>
	<path class="st0" d="M287.1,80.9c-0.4-1-0.7-1.5-0.7-1.9c-0.1-0.8,0-1.6,0-2.4c0.9,0.3,2.1,0.3,2.5,0.9c1.3,1.7,1.9,3.7,0.4,5.6
		c-1.5,1.8-3.4,1.4-4.9,0.1c-0.6-0.5-0.8-1.6-1.2-2.4c0.9-0.1,1.8-0.2,2.6-0.2C286,80.4,286.3,80.6,287.1,80.9z"/>
	<path class="st0" d="M317.7,44.7c0,0.3-0.2-0.4,0-0.8c0.3-0.7,0.9-1.2,1.3-1.8c0.6,0.6,1.5,1.2,1.6,1.8c0.2,1.8,1,4.2-1.6,4.9
		c-1.2,0.3-2.8-0.6-4.1-1C315.7,46.9,316.5,46,317.7,44.7z"/>
	<path class="st0" d="M301.7,75.2c-0.3-0.2-1.2-0.8-2-1.5c-0.1-0.1,0.4-1.1,0.7-1.2c1.7-0.5,3.7-1.5,5-1
		C306.6,72,304.4,75.2,301.7,75.2z"/>
	<path class="st0" d="M285.7,96.8c1.2,0.2,2.4,0.2,3.5,0.7c0.6,0.3,1,1.3,1.5,1.9c-0.7,0.3-1.4,0.8-2.2,0.9
		c-2.9,0.4-5.8,0.5-8.7,0.9c-0.7,0.1-1.2,1.2-1.8,1.8c0.8,0.4,1.6,1.2,2.3,1.1c2.9-0.5,5.7-1.4,8.5-2c1-0.2,2,0,3.1,0
		c-0.6,0.9-0.9,2.2-1.8,2.6c-3.6,1.9-7.5,3.4-11.6,2.1c-1.4-0.4-3-2.1-3.3-3.4c-0.3-1.2,0.8-3.5,1.9-4.1c2.6-1.4,5.6-2,8.5-3
		C285.5,96.5,285.6,96.6,285.7,96.8z"/>
	<path class="st0" d="M301.2,105.1c-3.1,0-4.6-1.9-3.6-3.9c0.3-0.7,1.1-1.4,1.7-1.5c0.5-0.1,1.1,0.8,1.7,1.3
		c0.3,0.3,0.5,0.6,0.7,0.9c0.4,0.7,1.3,1.6,1.1,2C302.6,104.6,301.6,104.9,301.2,105.1z"/>
	<path class="st0" d="M286.7,114.8c-1.2-1.7-2.8-2.9-2.6-3.7c0.3-1.2,1.9-2,2.9-3c0.6,1.3,1.5,2.6,1.8,4.1
		C289,112.6,287.9,113.4,286.7,114.8z"/>
	<path class="st0" d="M268.9,110c-0.7-1.1-1.8-2.2-1.9-3.4c0-0.8,1.4-1.7,2.1-2.6c0.8,1.4,1.8,2.7,2.3,4.2c0.2,0.7-0.5,1.7-0.8,2.5
		C270.1,110.5,269.5,110.3,268.9,110z"/>
	<path class="st0" d="M276.2,108.3c0.7,1.3,1.5,2.5,2,3.8c0.1,0.2-1.5,1.5-1.8,1.4c-1-0.5-2.1-1.4-2.4-2.3c-0.2-0.8,0.7-1.9,1.1-2.9
		C275.5,108.3,275.9,108.3,276.2,108.3z"/>
	<path class="st0" d="M296.6,106.4c0.9,1.1,1.5,1.8,2.2,2.5c-0.8,0.4-1.7,1.3-2.4,1.2c-0.8-0.1-1.5-1.1-2.3-1.8
		C294.8,107.8,295.5,107.3,296.6,106.4z"/>
	<path class="st0" d="M348.3,98.7c-4.6-1.3-9.6-2.5-14.5-4c-2.5-0.8-3.9-2.8-4.2-5.4c-0.3-3.3,2.9-6.4,6.1-5.2
		c5.2,1.9,10.3,2.8,15.8,3.1c1.8,0.1,3.4,2.7,5,4.3c0.3,0.3-0.1,1.3-0.2,2c-0.6-0.3-1.6-0.3-1.8-0.8c-1.7-3.3-4.5-3.9-7.7-3.5
		c-3,0.4-5.7-0.2-8.2-1.7c-0.8-0.5-1.7-1-2.6-1c-1.2,0.1-3.4,0.7-3.4,1.3c-0.2,1.3,0.4,3.6,1.2,3.9c3.5,1.5,7.2,2.7,11,3.5
		c3.1,0.6,6.4,1.3,9.4-0.8c0.2-0.2,1.3,0.3,1.3,0.5c-0.1,0.7-0.2,1.7-0.6,1.9C353,97.4,351,97.9,348.3,98.7z"/>
	<path class="st0" d="M331.2,100.9c-0.8-1.2-1.3-1.9-1.7-2.6c1-0.6,2-1.4,3.1-1.9c0.3-0.1,0.9,0.6,1.3,0.9
		C333.2,98.4,332.4,99.4,331.2,100.9z"/>
</g>
</svg>
